# xmcd
#
# Track frame offsets:
#	150
#	18237
#	36176
#	54736
#	74098
#	89838
#	108201
#	126918
#	146016
#	161816
#	179903
#	197842
#	216402
#	235764
#	251504
#	269867
#	288584
#	307682
#
# Disc length: 4313
#
# Revision: 2
# Processed by: cddbd v1.5.1PL0 Copyright (c) Steve Scherf et al.
# Submitted via: audiograbber 1.83.01
# Normalized: r1:DSETVAR1
#
DISCID=2410d712
DTITLE=Various Artist - PHM0405
DYEAR=2004
DGENRE=
TTITLE0=Enrique Iglesias and Kelis - Not In Love
TTITLE1=Hoobastank - Reason, The
TTITLE2=Nelly and Justin Timberlake - Work It Remix
TTITLE3=Josh Groban - You Raise Me Up
TTITLE4=Damien Rice - Cannonball Remix
TTITLE5=Janet Jackson - Just A Little While
TTITLE6=Kimberly Locke - 8th World Wonder
TTITLE7=Michelle Branch - 'til I get Over You
TTITLE8=Milissa Etheridge - Breathe
TTITLE9=Enrique Iglesias and Kelis - Not In Love (vocal)
TTITLE10=Hoobastand - Reason,, The (vocal)
TTITLE11=Nelly and Justin Timberlake - Work It Remix (vocal)
TTITLE12=Josh Groban - You Rise Me Up (vocal)
TTITLE13=Damien Rice - Cannonball Remix (vocal)
TTITLE14=Janet Jackson - Just A Little While (vocal)
TTITLE15=Kimberly Locke - 8th World Wonder (vocal)
TTITLE16=Michelle Branch - 'til I get Over You (vocal)
TTITLE17=Melissa Etheridge - Breath (vocal)
EXTD=
EXTT0=
EXTT1=
EXTT2=
EXTT3=
EXTT4=
EXTT5=
EXTT6=
EXTT7=
EXTT8=
EXTT9=
EXTT10=
EXTT11=
EXTT12=
EXTT13=
EXTT14=
EXTT15=
EXTT16=
EXTT17=
PLAYORDER=
